<svg xmlns="http://www.w3.org/2000/svg" viewBox="0 0 20 19.315">
  <defs>
    <style>
      .cls-1 {
        fill: #fff;
      }
    </style>
  </defs>
  <g id="logout" transform="translate(0 -1.66)">
    <g id="Group_19" data-name="Group 19" transform="translate(0 1.66)">
      <path id="Path_10" data-name="Path 10" class="cls-1" d="M12.619,18.631H2.344V4H12.62a.413.413,0,0,0,.413-.413V2.073a.413.413,0,0,0-.413-.413H.413A.413.413,0,0,0,0,2.073v18.49a.413.413,0,0,0,.413.413H12.619a.413.413,0,0,0,.413-.413V19.043A.412.412,0,0,0,12.619,18.631Z" transform="translate(0 -1.66)"/>
      <path id="Path_11" data-name="Path 11" class="cls-1" d="M33.956,25.245,28.4,19.691a.424.424,0,0,0-.583,0L26.5,21.009a.413.413,0,0,0,0,.583L29.01,24.1H18.15a.413.413,0,0,0-.413.413v2.045a.413.413,0,0,0,.413.413H29.01L26.5,29.481a.413.413,0,0,0,0,.583l1.318,1.318a.412.412,0,0,0,.583,0l5.554-5.554a.412.412,0,0,0,0-.584Z" transform="translate(-14.078 -15.879)"/>
    </g>
  </g>
</svg>
