<svg xmlns="http://www.w3.org/2000/svg" viewBox="0 0 18 18">
  <defs>
    <style>
      .cls-1 {
        fill: #eaeaea;
      }

      .cls-2 {
        fill: #fff;
      }
    </style>
  </defs>
  <g id="Group_35" data-name="Group 35" transform="translate(-556 -363)">
    <rect id="Rectangle_37" data-name="Rectangle 37" class="cls-1" width="18" height="18" rx="2" transform="translate(556 363)"/>
    <path id="star" class="cls-2" d="M5.483,1.347,6.611,3.632a.538.538,0,0,0,.406.295l2.522.367a.538.538,0,0,1,.3.918L8.012,6.991a.539.539,0,0,0-.155.477l.431,2.512a.539.539,0,0,1-.781.568L5.251,9.361a.539.539,0,0,0-.5,0L2.494,10.547a.539.539,0,0,1-.781-.568l.431-2.512a.539.539,0,0,0-.155-.477L.164,5.212a.538.538,0,0,1,.3-.918l2.522-.367a.538.538,0,0,0,.406-.295L4.518,1.347A.538.538,0,0,1,5.483,1.347Z" transform="translate(559.999 365.953)"/>
  </g>
</svg>
