<svg xmlns="http://www.w3.org/2000/svg" viewBox="0 0 18 18">
  <defs>
    <style>
      .cls-1 {
        fill: #0fa203;
      }

      .cls-2 {
        fill: #fff;
      }
    </style>
  </defs>
  <g id="Group_40" data-name="Group 40" transform="translate(-556 -363)">
    <rect id="Rectangle_37" data-name="Rectangle 37" class="cls-1" width="18" height="18" rx="2" transform="translate(556 363)"/>
    <g id="like-2" transform="translate(560 336)">
      <g id="Group_37" data-name="Group 37" transform="translate(2.5 32)">
        <g id="Group_36" data-name="Group 36">
          <path id="Path_19" data-name="Path 19" class="cls-2" d="M134.25,35.125h-2.5V33.25A1.251,1.251,0,0,0,130.5,32h-.937a.313.313,0,0,0-.312.313v1.479l-1.209,2.116a.308.308,0,0,0-.041.155v4.375a.313.313,0,0,0,.313.313h5.016a1.25,1.25,0,0,0,1.142-.743l1-2.256a.307.307,0,0,0,.027-.127v-1.25A1.251,1.251,0,0,0,134.25,35.125Z" transform="translate(-128 -32)"/>
        </g>
      </g>
      <g id="Group_39" data-name="Group 39" transform="translate(0 35.75)">
        <g id="Group_38" data-name="Group 38">
          <path id="Path_20" data-name="Path 20" class="cls-2" d="M.313,224a.313.313,0,0,0-.312.313v4.375A.313.313,0,0,0,.313,229H1.875v-5Z" transform="translate(0 -224)"/>
        </g>
      </g>
    </g>
  </g>
</svg>
